<svg  viewBox="0 0 22 22" fill="none" xmlns="http://www.w3.org/2000/svg">
<path d="M10.9997 20.1668C9.73162 20.1668 8.53995 19.9262 7.42467 19.445C6.3094 18.9637 5.33926 18.3106 4.51426 17.4856C3.68926 16.6606 3.03613 15.6904 2.55488 14.5752C2.07363 13.4599 1.83301 12.2682 1.83301 11.0002C1.83301 9.73211 2.07363 8.54044 2.55488 7.42516C3.03613 6.30988 3.68926 5.33975 4.51426 4.51475C5.33926 3.68975 6.3094 3.03662 7.42467 2.55537C8.53995 2.07412 9.73162 1.8335 10.9997 1.8335C12.2677 1.8335 13.4594 2.07412 14.5747 2.55537C15.69 3.03662 16.6601 3.68975 17.4851 4.51475C18.3101 5.33975 18.9632 6.30988 19.4445 7.42516C19.9257 8.54044 20.1663 9.73211 20.1663 11.0002V12.3293C20.1663 13.2307 19.857 13.9984 19.2382 14.6325C18.6195 15.2665 17.8594 15.5835 16.958 15.5835C16.4233 15.5835 15.9191 15.4689 15.4455 15.2397C14.9719 15.0106 14.5747 14.6821 14.2538 14.2543C13.8108 14.6974 13.3104 15.0297 12.7528 15.2512C12.1952 15.4727 11.6108 15.5835 10.9997 15.5835C9.73162 15.5835 8.65072 15.1366 7.75697 14.2429C6.86322 13.3491 6.41634 12.2682 6.41634 11.0002C6.41634 9.73211 6.86322 8.6512 7.75697 7.75745C8.65072 6.8637 9.73162 6.41683 10.9997 6.41683C12.2677 6.41683 13.3486 6.8637 14.2424 7.75745C15.1361 8.6512 15.583 9.73211 15.583 11.0002V12.3293C15.583 12.7266 15.7129 13.0627 15.9726 13.3377C16.2323 13.6127 16.5608 13.7502 16.958 13.7502C17.3552 13.7502 17.6837 13.6127 17.9434 13.3377C18.2031 13.0627 18.333 12.7266 18.333 12.3293V11.0002C18.333 8.95294 17.6226 7.21891 16.2018 5.79808C14.7809 4.37725 13.0469 3.66683 10.9997 3.66683C8.95245 3.66683 7.21842 4.37725 5.79759 5.79808C4.37676 7.21891 3.66634 8.95294 3.66634 11.0002C3.66634 13.0474 4.37676 14.7814 5.79759 16.2022C7.21842 17.6231 8.95245 18.3335 10.9997 18.3335H15.583V20.1668H10.9997ZM10.9997 13.7502C11.7636 13.7502 12.4129 13.4828 12.9476 12.9481C13.4823 12.4134 13.7497 11.7641 13.7497 11.0002C13.7497 10.2363 13.4823 9.58697 12.9476 9.05225C12.4129 8.51752 11.7636 8.25016 10.9997 8.25016C10.2358 8.25016 9.58648 8.51752 9.05176 9.05225C8.51704 9.58697 8.24967 10.2363 8.24967 11.0002C8.24967 11.7641 8.51704 12.4134 9.05176 12.9481C9.58648 13.4828 10.2358 13.7502 10.9997 13.7502Z" fill="var(--input-color)"/>
</svg>
