<svg  viewBox="0 0 18 18" fill="none" xmlns="http://www.w3.org/2000/svg">
<path d="M12.075 9.9751L10.9875 8.8876C11.1 8.3001 10.9313 7.7501 10.4813 7.2376C10.0312 6.7251 9.45 6.5251 8.7375 6.6376L7.65 5.5501C7.8625 5.4501 8.07813 5.3751 8.29688 5.3251C8.51563 5.2751 8.75 5.2501 9 5.2501C9.9375 5.2501 10.7344 5.57822 11.3906 6.23447C12.0469 6.89072 12.375 7.6876 12.375 8.6251C12.375 8.8751 12.35 9.10947 12.3 9.32822C12.25 9.54697 12.175 9.7626 12.075 9.9751ZM14.475 12.3376L13.3875 11.2876C13.8625 10.9251 14.2844 10.5282 14.6531 10.097C15.0219 9.66572 15.3375 9.1751 15.6 8.6251C14.975 7.3626 14.0781 6.35947 12.9094 5.61572C11.7406 4.87197 10.4375 4.5001 9 4.5001C8.6375 4.5001 8.28125 4.5251 7.93125 4.5751C7.58125 4.6251 7.2375 4.7001 6.9 4.8001L5.7375 3.6376C6.25 3.4251 6.775 3.26572 7.3125 3.15947C7.85 3.05322 8.4125 3.0001 9 3.0001C10.8875 3.0001 12.5688 3.52197 14.0438 4.56572C15.5188 5.60947 16.5875 6.9626 17.25 8.6251C16.9625 9.3626 16.5844 10.047 16.1156 10.6782C15.6469 11.3095 15.1 11.8626 14.475 12.3376ZM14.85 16.9501L11.7 13.8376C11.2625 13.9751 10.8219 14.0782 10.3781 14.147C9.93438 14.2157 9.475 14.2501 9 14.2501C7.1125 14.2501 5.43125 13.7282 3.95625 12.6845C2.48125 11.6407 1.4125 10.2876 0.75 8.6251C1.0125 7.9626 1.34375 7.34697 1.74375 6.77822C2.14375 6.20947 2.6 5.7001 3.1125 5.2501L1.05 3.1501L2.1 2.1001L15.9 15.9001L14.85 16.9501ZM4.1625 6.3001C3.8 6.6251 3.46875 6.98135 3.16875 7.36885C2.86875 7.75635 2.6125 8.1751 2.4 8.6251C3.025 9.8876 3.92188 10.8907 5.09063 11.6345C6.25938 12.3782 7.5625 12.7501 9 12.7501C9.25 12.7501 9.49375 12.7345 9.73125 12.7032C9.96875 12.672 10.2125 12.6376 10.4625 12.6001L9.7875 11.8876C9.65 11.9251 9.51875 11.9532 9.39375 11.972C9.26875 11.9907 9.1375 12.0001 9 12.0001C8.0625 12.0001 7.26563 11.672 6.60938 11.0157C5.95312 10.3595 5.625 9.5626 5.625 8.6251C5.625 8.4876 5.63438 8.35635 5.65313 8.23135C5.67188 8.10635 5.7 7.9751 5.7375 7.8376L4.1625 6.3001Z" fill="var(--show-color)"/>
</svg>
