<svg  viewBox="0 0 22 22" fill="none" xmlns="http://www.w3.org/2000/svg">
<g clip-path="url(#clip0_40_1313)">
<path d="M6.41699 12.3748C5.91283 12.3748 5.48123 12.1953 5.1222 11.8363C4.76317 11.4773 4.58366 11.0457 4.58366 10.5415C4.58366 10.0373 4.76317 9.60574 5.1222 9.24671C5.48123 8.88769 5.91283 8.70817 6.41699 8.70817C6.92116 8.70817 7.35276 8.88769 7.71178 9.24671C8.07081 9.60574 8.25033 10.0373 8.25033 10.5415C8.25033 11.0457 8.07081 11.4773 7.71178 11.8363C7.35276 12.1953 6.92116 12.3748 6.41699 12.3748ZM22.0003 10.5415L17.8753 14.6665L16.042 13.2915L14.2087 14.6665L12.2607 13.2915L11.1837 13.2915C10.6948 14.1165 10.034 14.7811 9.20137 15.2853C8.36873 15.7894 7.4406 16.0415 6.41699 16.0415C4.88922 16.0415 3.5906 15.5068 2.52116 14.4373C1.45172 13.3679 0.916993 12.0693 0.916993 10.5415C0.916993 9.01373 1.45171 7.71512 2.52116 6.64567C3.5906 5.57623 4.88921 5.0415 6.41699 5.0415C7.4406 5.0415 8.36873 5.29359 9.20137 5.79775C10.034 6.30192 10.6948 6.9665 11.1837 7.7915L19.2503 7.7915L22.0003 10.5415ZM6.41699 14.2082C7.27255 14.2082 8.02498 13.9484 8.67428 13.429C9.32359 12.9096 9.75519 12.2526 9.96908 11.4582L12.8337 11.4582L14.1628 12.3978L16.042 10.9998L17.6691 12.2603L19.3878 10.5415L18.4712 9.62484L9.96908 9.62484C9.75519 8.83039 9.32359 8.17345 8.67428 7.654C8.02498 7.13456 7.27255 6.87484 6.41699 6.87484C5.40866 6.87484 4.54546 7.23387 3.82741 7.95192C3.10935 8.66998 2.75033 9.53317 2.75033 10.5415C2.75033 11.5498 3.10935 12.413 3.82741 13.1311C4.54547 13.8491 5.40866 14.2082 6.41699 14.2082Z" fill="var(--input-color)"/>
</g>
<defs>
<clipPath id="clip0_40_1313">
<rect width="22" height="22" fill="white" transform="translate(9.61651e-07 22) rotate(-90)"/>
</clipPath>
</defs>
</svg>
