<svg width="22" height="22" viewBox="0 0 22 22" fill="none" xmlns="http://www.w3.org/2000/svg">
<path d="M11.0002 0.916504L19.296 5.8665C19.571 6.03456 19.7849 6.26373 19.9377 6.554C20.0904 6.84428 20.1668 7.14984 20.1668 7.47067V17.4165C20.1668 17.9207 19.9873 18.3523 19.6283 18.7113C19.2693 19.0703 18.8377 19.2498 18.3335 19.2498H3.66683C3.16266 19.2498 2.73107 19.0703 2.37204 18.7113C2.01301 18.3523 1.8335 17.9207 1.8335 17.4165V7.47067C1.8335 7.14984 1.90988 6.84428 2.06266 6.554C2.21544 6.26373 2.42933 6.03456 2.70433 5.8665L11.0002 0.916504ZM11.0002 11.5957L18.1502 7.33317L11.0002 3.07067L3.85016 7.33317L11.0002 11.5957ZM11.0002 13.7498L3.66683 9.34984V17.4165H18.3335V9.34984L11.0002 13.7498ZM11.0002 17.4165H18.3335H3.66683H11.0002Z" fill="var(--input-color)"/>
</svg>
