<svg  viewBox="0 0 22 22" fill="none" xmlns="http://www.w3.org/2000/svg">
<path d="M12.8335 6.41683V4.5835H20.1668V6.41683H12.8335ZM12.8335 10.0835V8.25016H20.1668V10.0835H12.8335ZM12.8335 13.7502V11.9168H20.1668V13.7502H12.8335ZM7.3335 12.8335C6.56961 12.8335 5.9203 12.5661 5.38558 12.0314C4.85086 11.4967 4.5835 10.8474 4.5835 10.0835C4.5835 9.31961 4.85086 8.6703 5.38558 8.13558C5.9203 7.60086 6.56961 7.3335 7.3335 7.3335C8.09738 7.3335 8.74669 7.60086 9.28141 8.13558C9.81614 8.6703 10.0835 9.31961 10.0835 10.0835C10.0835 10.8474 9.81614 11.4967 9.28141 12.0314C8.74669 12.5661 8.09738 12.8335 7.3335 12.8335ZM1.8335 18.3335V16.5918C1.8335 16.271 1.90988 15.9654 2.06266 15.6752C2.21544 15.3849 2.42933 15.1557 2.70433 14.9877C3.39183 14.5752 4.12134 14.2658 4.89287 14.0595C5.6644 13.8533 6.47794 13.7502 7.3335 13.7502C8.18905 13.7502 9.00259 13.8533 9.77412 14.0595C10.5456 14.2658 11.2752 14.5752 11.9627 14.9877C12.2377 15.1557 12.4516 15.3849 12.6043 15.6752C12.7571 15.9654 12.8335 16.271 12.8335 16.5918V18.3335H1.8335ZM3.80433 16.5002H10.8627C10.3279 16.1946 9.76266 15.9654 9.16683 15.8127C8.571 15.6599 7.95989 15.5835 7.3335 15.5835C6.70711 15.5835 6.096 15.6599 5.50016 15.8127C4.90433 15.9654 4.33905 16.1946 3.80433 16.5002ZM7.3335 11.0002C7.59322 11.0002 7.81093 10.9123 7.98662 10.7366C8.16232 10.5609 8.25016 10.3432 8.25016 10.0835C8.25016 9.82377 8.16232 9.60607 7.98662 9.43037C7.81093 9.25468 7.59322 9.16683 7.3335 9.16683C7.07377 9.16683 6.85607 9.25468 6.68037 9.43037C6.50468 9.60607 6.41683 9.82377 6.41683 10.0835C6.41683 10.3432 6.50468 10.5609 6.68037 10.7366C6.85607 10.9123 7.07377 11.0002 7.3335 11.0002Z" fill="var(--input-color)"/>
</svg>
