<svg width="22" height="22" viewBox="0 0 22 22" fill="none" xmlns="http://www.w3.org/2000/svg">
<path d="M1.83317 17.4165V15.5832H20.1665V17.4165H1.83317ZM2.88734 11.8707L1.69567 11.1832L2.47484 9.80817H0.916504V8.43317H2.47484L1.69567 7.104L2.88734 6.4165L3.6665 7.74567L4.44567 6.4165L5.63734 7.104L4.85817 8.43317H6.4165V9.80817H4.85817L5.63734 11.1832L4.44567 11.8707L3.6665 10.4957L2.88734 11.8707ZM10.2207 11.8707L9.029 11.1832L9.80817 9.80817H8.24984V8.43317H9.80817L9.029 7.104L10.2207 6.4165L10.9998 7.74567L11.779 6.4165L12.9707 7.104L12.1915 8.43317H13.7498V9.80817H12.1915L12.9707 11.1832L11.779 11.8707L10.9998 10.4957L10.2207 11.8707ZM17.554 11.8707L16.3623 11.1832L17.1415 9.80817H15.5832V8.43317H17.1415L16.3623 7.104L17.554 6.4165L18.3332 7.74567L19.1123 6.4165L20.304 7.104L19.5248 8.43317H21.0832V9.80817H19.5248L20.304 11.1832L19.1123 11.8707L18.3332 10.4957L17.554 11.8707Z" fill="var(--input-color)"/>
</svg>
