<svg viewBox="0 0 22 22" fill="none" xmlns="http://www.w3.org/2000/svg">
<path d="M11.4583 10.954C11.9014 10.4651 12.2413 9.90748 12.4781 9.28109C12.7149 8.6547 12.8333 8.00539 12.8333 7.33317C12.8333 6.66095 12.7149 6.01164 12.4781 5.38525C12.2413 4.75886 11.9014 4.20123 11.4583 3.71234C12.375 3.83456 13.1389 4.23942 13.75 4.92692C14.3611 5.61442 14.6667 6.4165 14.6667 7.33317C14.6667 8.24984 14.3611 9.05192 13.75 9.73942C13.1389 10.4269 12.375 10.8318 11.4583 10.954ZM16.5 18.3332V15.5832C16.5 15.0332 16.3778 14.5099 16.1333 14.0134C15.8889 13.5169 15.5681 13.0776 15.1708 12.6957C15.95 12.9707 16.6719 13.3259 17.3365 13.7613C18.001 14.1967 18.3333 14.804 18.3333 15.5832V18.3332H16.5ZM18.3333 11.9165V10.0832H16.5V8.24984H18.3333V6.4165H20.1667V8.24984H22V10.0832H20.1667V11.9165H18.3333ZM7.33333 10.9998C6.325 10.9998 5.46181 10.6408 4.74375 9.92275C4.02569 9.2047 3.66667 8.3415 3.66667 7.33317C3.66667 6.32484 4.02569 5.46164 4.74375 4.74359C5.46181 4.02553 6.325 3.6665 7.33333 3.6665C8.34167 3.6665 9.20486 4.02553 9.92292 4.74359C10.641 5.46164 11 6.32484 11 7.33317C11 8.3415 10.641 9.2047 9.92292 9.92275C9.20486 10.6408 8.34167 10.9998 7.33333 10.9998ZM0 18.3332V15.7665C0 15.2471 0.133681 14.7696 0.401042 14.3342C0.668403 13.8988 1.02361 13.5665 1.46667 13.3373C2.41389 12.8637 3.37639 12.5085 4.35417 12.2717C5.33194 12.0349 6.325 11.9165 7.33333 11.9165C8.34167 11.9165 9.33472 12.0349 10.3125 12.2717C11.2903 12.5085 12.2528 12.8637 13.2 13.3373C13.6431 13.5665 13.9983 13.8988 14.2656 14.3342C14.533 14.7696 14.6667 15.2471 14.6667 15.7665V18.3332H0ZM7.33333 9.1665C7.8375 9.1665 8.2691 8.98699 8.62813 8.62796C8.98715 8.26893 9.16667 7.83734 9.16667 7.33317C9.16667 6.829 8.98715 6.39741 8.62813 6.03838C8.2691 5.67935 7.8375 5.49984 7.33333 5.49984C6.82917 5.49984 6.39757 5.67935 6.03854 6.03838C5.67951 6.39741 5.5 6.829 5.5 7.33317C5.5 7.83734 5.67951 8.26893 6.03854 8.62796C6.39757 8.98699 6.82917 9.1665 7.33333 9.1665ZM1.83333 16.4998H12.8333V15.7665C12.8333 15.5984 12.7913 15.4457 12.7073 15.3082C12.6233 15.1707 12.5125 15.0637 12.375 14.9873C11.55 14.5748 10.7174 14.2655 9.87708 14.0592C9.03681 13.853 8.18889 13.7498 7.33333 13.7498C6.47778 13.7498 5.62986 13.853 4.78958 14.0592C3.94931 14.2655 3.11667 14.5748 2.29167 14.9873C2.15417 15.0637 2.0434 15.1707 1.95938 15.3082C1.87535 15.4457 1.83333 15.5984 1.83333 15.7665V16.4998Z" fill="var(--input-color)"/>
</svg>
